<?xml version='1.0' encoding='UTF-8' standalone='no'?>
<!-- Created with Fritzing (https://fritzing.org/) -->
<svg xmlns="http://www.w3.org/2000/svg" x="0in" y="0in"  version="1.2" height="1.3645in" xmlns:svg="http://www.w3.org/2000/svg" viewBox="0 0 124.974 98.244" width="1.73574in" baseProfile="tiny">
 <g transform="matrix(-1, 0, 0, 1, 124.974, 0)">
  <g partID="860795110">
   <g  id="board">
    <rect x="0.288" y="0.288"  height="97.668" stroke="black" width="124.398" stroke-width="0.5" fill="none" fill-opacity="0.5" id="boardoutline"/>
   </g>
  </g>
  <g partID="860795180">
   <g transform="translate(34.8962,21.6258)">
    <g transform="matrix(0,-1,1,0,0,0)">
     <g  id="copper0">
      <circle  r="2.088" cx="5.04" stroke="black" cy="5.04" stroke-width="2.16" fill="black" id="connector0pin"/>
      <circle  r="2.088" cx="5.04" stroke="black" cy="12.24" stroke-width="2.16" fill="black" id="connector1pin"/>
     </g>
    </g>
   </g>
  </g>
  <g partID="860795190">
   <g transform="translate(70.8962,25.9458)">
    <g  id="copper0">
     <circle  r="2.088" cx="5.04" stroke="black" cy="5.04" stroke-width="2.16" fill="black" id="connector0pin"/>
     <circle  r="2.088" cx="5.04" stroke="black" cy="12.24" stroke-width="2.16" fill="black" id="connector1pin"/>
     <circle  r="2.088" cx="5.04" stroke="black" cy="19.44" stroke-width="2.16" fill="black" id="connector2pin"/>
     <circle  r="2.088" cx="5.04" stroke="black" cy="26.64" stroke-width="2.16" fill="black" id="connector3pin"/>
    </g>
   </g>
  </g>
  <g partID="860795220">
   <g transform="translate(70.8962,61.9458)">
    <g  id="copper0">
     <circle  r="2.088" cx="5.04" stroke="black" cy="5.04" stroke-width="2.16" fill="black" id="connector0pin"/>
     <circle  r="2.088" cx="5.04" stroke="black" cy="12.24" stroke-width="2.16" fill="black" id="connector1pin"/>
     <circle  r="2.088" cx="5.04" stroke="black" cy="19.44" stroke-width="2.16" fill="black" id="connector2pin"/>
     <circle  r="2.088" cx="5.04" stroke="black" cy="26.64" stroke-width="2.16" fill="black" id="connector3pin"/>
    </g>
   </g>
  </g>
  <g partID="860813120">
   <g transform="translate(49.2962,25.9458)">
    <g  id="copper0">
     <circle  r="2.088" cx="5.04" stroke="black" cy="5.04" stroke-width="2.16" fill="black" id="connector0pin"/>
     <circle  r="2.088" cx="5.04" stroke="black" cy="12.24" stroke-width="2.16" fill="black" id="connector1pin"/>
     <circle  r="2.088" cx="5.04" stroke="black" cy="19.44" stroke-width="2.16" fill="black" id="connector2pin"/>
     <circle  r="2.088" cx="5.04" stroke="black" cy="26.64" stroke-width="2.16" fill="black" id="connector3pin"/>
    </g>
   </g>
  </g>
  <g partID="860795270">
   <g transform="translate(49.2962,61.9458)">
    <g  id="copper0">
     <circle  r="2.088" cx="5.04" stroke="black" cy="5.04" stroke-width="2.16" fill="black" id="connector0pin"/>
     <circle  r="2.088" cx="5.04" stroke="black" cy="12.24" stroke-width="2.16" fill="black" id="connector1pin"/>
     <circle  r="2.088" cx="5.04" stroke="black" cy="19.44" stroke-width="2.16" fill="black" id="connector2pin"/>
     <circle  r="2.088" cx="5.04" stroke="black" cy="26.64" stroke-width="2.16" fill="black" id="connector3pin"/>
    </g>
   </g>
  </g>
  <g partID="860795300">
   <g transform="translate(70.8962,21.6258)">
    <g transform="matrix(0,-1,1,0,0,0)">
     <g  id="copper0">
      <circle  r="2.088" cx="5.04" stroke="black" cy="5.04" stroke-width="2.16" fill="black" id="connector0pin"/>
      <circle  r="2.088" cx="5.04" stroke="black" cy="12.24" stroke-width="2.16" fill="black" id="connector1pin"/>
      <circle  r="2.088" cx="5.04" stroke="black" cy="19.44" stroke-width="2.16" fill="black" id="connector2pin"/>
      <circle  r="2.088" cx="5.04" stroke="black" cy="26.64" stroke-width="2.16" fill="black" id="connector3pin"/>
     </g>
    </g>
   </g>
  </g>
  <g partID="860795320">
   <g transform="translate(42.6362,77.2818)">
    <g transform="matrix(-1,0,0,-1,0,0)">
     <g  id="copper0">
      <g  id="copper1">
       <!-- <rect width="55" x="10" y="15.5" fill="none" height="55" stroke="rgb(255, 191, 0)" stroke-width="20" />  -->
       <circle  r="1.98" cx="2.7" stroke="black" cy="3.096" stroke-width="2.16" fill="black" id="connector0pin"/>
       <circle  r="1.98" cx="31.5" stroke="black" cy="3.096" stroke-width="2.16" fill="black" id="connector1pin"/>
      </g>
     </g>
    </g>
   </g>
  </g>
  <g partID="860795340">
   <g transform="translate(8.43616,42.2898)">
    <g  id="copper0">
     <g  id="copper1">
      <!-- <rect width="55" x="10" y="15.5" fill="none" height="55" stroke="rgb(255, 191, 0)" stroke-width="20" />  -->
      <circle  r="1.98" cx="2.7" stroke="black" cy="3.096" stroke-width="2.16" fill="black" id="connector0pin"/>
      <circle  r="1.98" cx="31.5" stroke="black" cy="3.096" stroke-width="2.16" fill="black" id="connector1pin"/>
     </g>
    </g>
   </g>
  </g>
  <g partID="860795370">
   <g transform="translate(121.836,34.0818)">
    <g transform="matrix(-1,0,0,-1,0,0)">
     <g  id="copper0">
      <g  id="copper1">
       <!-- <rect width="55" x="10" y="15.5" fill="none" height="55" stroke="rgb(255, 191, 0)" stroke-width="20" />  -->
       <circle  r="1.98" cx="2.7" stroke="black" cy="3.096" stroke-width="2.16" fill="black" id="connector0pin"/>
       <circle  r="1.98" cx="31.5" stroke="black" cy="3.096" stroke-width="2.16" fill="black" id="connector1pin"/>
      </g>
     </g>
    </g>
   </g>
  </g>
  <g partID="860795380">
   <g transform="translate(121.836,62.8818)">
    <g transform="matrix(-1,0,0,-1,0,0)">
     <g  id="copper0">
      <g  id="copper1">
       <!-- <rect width="55" x="10" y="15.5" fill="none" height="55" stroke="rgb(255, 191, 0)" stroke-width="20" />  -->
       <circle  r="1.98" cx="2.7" stroke="black" cy="3.096" stroke-width="2.16" fill="black" id="connector0pin"/>
       <circle  r="1.98" cx="31.5" stroke="black" cy="3.096" stroke-width="2.16" fill="black" id="connector1pin"/>
      </g>
     </g>
    </g>
   </g>
  </g>
  <g partID="860795410">
   <g transform="translate(121.836,48.4818)">
    <g transform="matrix(-1,0,0,-1,0,0)">
     <g  id="copper0">
      <g  id="copper1">
       <!-- <rect width="55" x="10" y="15.5" fill="none" height="55" stroke="rgb(255, 191, 0)" stroke-width="20" />  -->
       <circle  r="1.98" cx="2.7" stroke="black" cy="3.096" stroke-width="2.16" fill="black" id="connector0pin"/>
       <circle  r="1.98" cx="31.5" stroke="black" cy="3.096" stroke-width="2.16" fill="black" id="connector1pin"/>
      </g>
     </g>
    </g>
   </g>
  </g>
  <g partID="860795440">
   <g transform="translate(42.6362,62.8818)">
    <g transform="matrix(-1,0,0,-1,0,0)">
     <g  id="copper0">
      <g  id="copper1">
       <!-- <rect width="55" x="10" y="15.5" fill="none" height="55" stroke="rgb(255, 191, 0)" stroke-width="20" />  -->
       <circle  r="1.98" cx="2.7" stroke="black" cy="3.096" stroke-width="2.16" fill="black" id="connector0pin"/>
       <circle  r="1.98" cx="31.5" stroke="black" cy="3.096" stroke-width="2.16" fill="black" id="connector1pin"/>
      </g>
     </g>
    </g>
   </g>
  </g>
  <g partID="860874780">
   <g transform="translate(8.43616,27.8898)">
    <g  id="copper0">
     <g  id="copper1">
      <!-- <rect width="55" x="10" y="15.5" fill="none" height="55" stroke="rgb(255, 191, 0)" stroke-width="20" />  -->
      <circle  r="1.98" cx="2.7" stroke="black" cy="3.096" stroke-width="2.16" fill="black" id="connector0pin"/>
      <circle  r="1.98" cx="31.5" stroke="black" cy="3.096" stroke-width="2.16" fill="black" id="connector1pin"/>
     </g>
    </g>
   </g>
  </g>
  <g partID="860795470">
   <g transform="translate(87.6362,71.0898)">
    <g  id="copper0">
     <g  id="copper1">
      <!-- <rect width="55" x="10" y="15.5" fill="none" height="55" stroke="rgb(255, 191, 0)" stroke-width="20" />  -->
      <circle  r="1.98" cx="2.7" stroke="black" cy="3.096" stroke-width="2.16" fill="black" id="connector0pin"/>
      <circle  r="1.98" cx="31.5" stroke="black" cy="3.096" stroke-width="2.16" fill="black" id="connector1pin"/>
     </g>
    </g>
   </g>
  </g>
  <g partID="860920730">
   <g transform="translate(105.801,3.25037)">
    <g  id="copper0">
     <circle  r="4.53543" cx="6.13543" stroke="black" cy="6.13543" stroke-width="0.72" fill="black" id="nonconn0"/>
    </g>
   </g>
  </g>
  <g partID="860920720">
   <g transform="translate(5.00072,3.25037)">
    <g  id="copper0">
     <circle  r="4.53543" cx="6.13543" stroke="black" cy="6.13543" stroke-width="0.72" fill="black" id="nonconn0"/>
    </g>
   </g>
  </g>
  <g partID="860920650">
   <g transform="translate(105.801,82.4504)">
    <g  id="copper0">
     <circle  r="4.53543" cx="6.13543" stroke="black" cy="6.13543" stroke-width="0.72" fill="black" id="nonconn0"/>
    </g>
   </g>
  </g>
  <g partID="860920680">
   <g transform="translate(5.00072,82.4504)">
    <g  id="copper0">
     <circle  r="4.53543" cx="6.13543" stroke="black" cy="6.13543" stroke-width="0.72" fill="black" id="nonconn0"/>
    </g>
   </g>
  </g>
  <g partID="860946430">
   <g transform="translate(63.5107,32.4067)">
    <g  id="copper0">
     <circle  r="0.992124" cx="3.01732" stroke="black" cy="3.01732" stroke-width="1.57039" fill="black" id="connector0pin"/>
    </g>
   </g>
  </g>
 </g>
</svg>
